<?xml version="1.0" encoding="utf-8"?>
<!-- Generator: Adobe Illustrator 24.1.1, SVG Export Plug-In . SVG Version: 6.00 Build 0)  -->
<svg version="1.1" id="Layer_1" xmlns="http://www.w3.org/2000/svg" xmlns:xlink="http://www.w3.org/1999/xlink" x="0px" y="0px"
	 viewBox="0 0 210.4 32.5" style="enable-background:new 0 0 210.4 32.5;" xml:space="preserve">
<style type="text/css">
	.st0{fill-rule:evenodd;clip-rule:evenodd;}
	.st1{font-family:'ArticulateExtrabold';}
	.st2{font-size:18px;}
	.st3{enable-background:new    ;}
	.st4{font-family:'MyriadPro-Regular';}
	.st5{font-size:12px;}
	.st6{font-size:16px;}
</style>
<desc>Created with Sketch.</desc>
<g id="OPt-2">
	<g id="prog2_pro3_Mobile-Portrait_opt2-Copy-2" transform="translate(-10.000000, -15.000000)">
		<g id="nav">
			<g id="Group-6">
				<g id="ic_home_1_" transform="translate(14.000000, 17.000000)">
					<g id="Group_1_" transform="translate(9.600000, 12.000000) scale(-1, 1) translate(-9.600000, -12.000000) ">
						<path id="Shape_5_" class="st0" d="M0.9,9.8l0.9,0.7l1.5,1.1c0.2-1,0.7-1.8,1.5-2.4L2,7.1L2.9,6c0.4-0.5,0.3-1.1-0.2-1.5
							L0.6,7.2C0.3,7.6,0.2,8.1,0.3,8.6C0.3,9.1,0.6,9.5,0.9,9.8L0.9,9.8z"/>
						<path id="Shape_4_" class="st0" d="M9.7,19.5c-3.1-1.6-5.8-2.1-6.5-1c-0.6,0.9,0.4,2.6,2.3,4.4l-1.8,2.9H2.5
							c-0.6,0-1,0.5-1,1.1H3h2.1l0.7-1.1l1-1.7l0.4-0.7C7.1,23.2,7,23,7,22.7c0-0.9,0.7-1.6,1.6-1.6h0.1L9.7,19.5L9.7,19.5z"/>
						<path id="Shape_3_" class="st0" d="M18.4,9.4C18.2,8.6,17.6,8,16.7,8c-0.2,0-0.5,0-0.7,0.1c-0.6,0.3-1,0.9-1,1.6v8.2
							c0,0.6-0.5,1.1-1,1.1c-0.4,0-0.8-0.3-0.9-0.6v-0.1l-1-2.4L14,9.4l0,0c0-0.1,0-0.1,0.1-0.2c0.7-2.5-0.5-5.2-2.9-6.3L6.6,4.5
							C6.1,4.7,5.8,5.3,6,5.8l1.1-0.4C7.5,5.2,8,5.5,8.2,5.9C8.4,6.4,8.1,6.8,7.7,7L6.5,7.5C6.7,8,7.3,8.3,7.8,8.1l1.3-0.5
							c0.1,0.5-0.2,1-0.7,1.2L6.1,9.7c-1,0.4-1.7,1.4-1.7,2.6v0.1v0.1l0,0H0.6V11c0-0.4-0.5-0.7-0.8-0.9l-0.2-0.2v3.5
							c0,1,0.8,1.8,1.8,1.8h4.1c0.4,0,0.7,0,1.1,0.1l0,0c0,0,0,0,0.1,0l0,0c1.8,0.5,3.2,2.1,3.4,4v0.1c0,0.1,0,0.2,0,0.3
							c0,1.1-0.4,2.1-1,2.9c0,0.1-0.1,0.1-0.1,0.2c-0.1,0.2-0.2,0.4-0.2,0.7c0,0.6,0.5,1.2,1.1,1.2c0.2,0,0.4-0.1,0.6-0.2l2.3-1.4
							c0.3,0.2,0.5,0.5,0.5,0.9c0,0.3-0.1,0.5-0.3,0.7l-1,1.1h-1.2l0,0h-0.1c-0.6,0-1,0.5-1,1.1h2.1l0,0h1.3c0-1,0.8-1.8,1.8-1.8V22
							c-0.8-0.2-1.4-0.9-1.4-1.8v-0.1c0.1,0,0.2,0,0.3,0c0.4,0,0.8-0.1,1.1-0.3c0.6-0.4,1-1.1,1-1.9V9.7c0-0.4,0.3-0.7,0.7-0.7
							c0.4,0,0.7,0.3,0.7,0.7c-0.5,0.3-0.8,0.9-0.8,1.5c0,1,0.8,1.8,1.8,1.8V9.7C18.4,9.6,18.4,9.5,18.4,9.4L18.4,9.4z"/>
					</g>
				</g>
			</g>
		</g>
	</g>
</g>
<text transform="matrix(1 0 0 1 27.3769 22.8663)" class="st1 st2">COLMAR</text>
<text transform="matrix(1 0 0 1 109.8771 22.2663)" class="st3"><tspan x="0" y="0" class="st4 st5"> </tspan><tspan x="2.5" y="0" class="st4 st6">ACADEMY</tspan></text>
</svg>
